<svg width="37" height="36" viewBox="0 0 37 36" xmlns="http://www.w3.org/2000/svg"><path d="M212.466201,0.251644737 C207.589911,0.251644737 206.978468,0.272075877 205.063388,0.358450283 C203.1523,0.444613332 201.847095,0.744669283 200.705032,1.18344563 C199.524339,1.63694649 198.523039,2.2438218 197.524802,3.23050496 C196.526638,4.21725858 195.9127,5.20704163 195.453922,6.3741529 C195.01004,7.50307907 194.706492,8.79327034 194.619327,10.6823758 C194.531947,12.5754266 194.511278,13.1798361 194.511278,18.0000352 C194.511278,22.8201639 194.531947,23.4245734 194.619327,25.3176242 C194.706492,27.2067297 195.01004,28.4969209 195.453922,29.6258471 C195.9127,30.7929584 196.526638,31.7827414 197.524802,32.769495 C198.523039,33.7561782 199.524339,34.3630535 200.705032,34.8166248 C201.847095,35.2553307 203.1523,35.5553867 205.063388,35.6415497 C206.978468,35.7279241 207.589911,35.7483553 212.466201,35.7483553 C217.34242,35.7483553 217.953863,35.7279241 219.868942,35.6415497 C221.780031,35.5553867 223.085236,35.2553307 224.227299,34.8166248 C225.407991,34.3630535 226.409292,33.7561782 227.407528,32.769495 C228.405693,31.7827414 229.019631,30.7929584 229.47848,29.6258471 C229.922291,28.4969209 230.225839,27.2067297 230.313004,25.3176242 C230.400384,23.4245734 230.421053,22.8201639 230.421053,18.0000352 C230.421053,13.1798361 230.400384,12.5754266 230.313004,10.6823758 C230.225839,8.79327034 229.922291,7.50307907 229.47848,6.3741529 C229.019631,5.20704163 228.405693,4.21725858 227.407528,3.23050496 C226.409292,2.2438218 225.407991,1.63694649 224.227299,1.18344563 C223.085236,0.744669283 221.780031,0.444613332 219.868942,0.358450283 C217.953863,0.272075877 217.34242,0.251644737 212.466201,0.251644737 Z M212.466201,3.44954087 C217.260315,3.44954087 217.82821,3.46764709 219.721481,3.55303517 C221.472064,3.63194164 222.422762,3.9210775 223.055444,4.16413761 C223.893532,4.4861042 224.491647,4.8707028 225.11991,5.49180946 C225.748244,6.11284566 226.137318,6.70408059 226.463031,7.53252809 C226.70892,8.15793233 227.00142,9.09769432 227.081245,10.8281414 C227.167627,12.6996339 227.185944,13.2609971 227.185944,18.0000352 C227.185944,22.7390029 227.167627,23.3003661 227.081245,25.1718586 C227.00142,26.9023057 226.70892,27.8420677 226.463031,28.4674719 C226.137318,29.2959194 225.748244,29.8871543 225.11991,30.5081905 C224.491647,31.1292972 223.893532,31.5138958 223.055444,31.8358624 C222.422762,32.0789225 221.472064,32.3680584 219.721481,32.4469648 C217.828495,32.5323529 217.260671,32.5504591 212.466201,32.5504591 C207.67166,32.5504591 207.103907,32.5323529 205.21085,32.4469648 C203.460266,32.3680584 202.509569,32.0789225 201.876887,31.8358624 C201.038799,31.5138958 200.440684,31.1292972 199.812421,30.5081905 C199.184158,29.8871543 198.795013,29.2959194 198.4693,28.4674719 C198.223411,27.8420677 197.930911,26.9023057 197.851086,25.1718586 C197.764704,23.3003661 197.746387,22.7390029 197.746387,18.0000352 C197.746387,13.2609971 197.764704,12.6996339 197.851086,10.8281414 C197.930911,9.09769432 198.223411,8.15793233 198.4693,7.53252809 C198.795013,6.70408059 199.184087,6.11284566 199.812421,5.49180946 C200.440684,4.8707028 201.038799,4.4861042 201.876887,4.16413761 C202.509569,3.9210775 203.460266,3.63194164 205.21085,3.55303517 C207.104121,3.46764709 207.672016,3.44954087 212.466201,3.44954087 Z M212.466201,8.88598544 C207.374028,8.88598544 203.246094,12.9664364 203.246094,18.0000352 C203.246094,23.0335636 207.374028,27.1140146 212.466201,27.1140146 C217.558303,27.1140146 221.686237,23.0335636 221.686237,18.0000352 C221.686237,12.9664364 217.558303,8.88598544 212.466201,8.88598544 Z M212.466201,23.9161184 C209.160747,23.9161184 206.481203,21.2673972 206.481203,18.0000352 C206.481203,14.7326028 209.160747,12.0838816 212.466201,12.0838816 C215.771584,12.0838816 218.451128,14.7326028 218.451128,18.0000352 C218.451128,21.2673972 215.771584,23.9161184 212.466201,23.9161184 Z M224.205133,8.52590421 C224.205133,9.70217426 223.240466,10.6556744 222.050508,10.6556744 C220.860622,10.6556744 219.895955,9.70217426 219.895955,8.52590421 C219.895955,7.34963416 220.860622,6.39606354 222.050508,6.39606354 C223.240466,6.39606354 224.205133,7.34963416 224.205133,8.52590421 Z" transform="translate(-194)" fill-rule="evenodd"/></svg>