<svg width="28" height="25" viewBox="0 0 28 25" xmlns="http://www.w3.org/2000/svg"><path d="M163.314662,30.5717516 L157.312646,30.5717516 L157.312646,21.9927738 C157.312646,19.7472381 156.373783,18.2142732 154.309243,18.2142732 C152.730101,18.2142732 151.851913,19.248751 151.443156,20.2457251 C151.289873,20.6035732 151.313823,21.1020603 151.313823,21.6005473 L151.313823,30.5717516 L145.367692,30.5717516 C145.367692,30.5717516 145.444334,15.3749284 145.367692,13.9935411 L151.313823,13.9935411 L151.313823,16.5953623 C151.665098,15.4577492 153.565178,13.8341503 156.597322,13.8341503 C160.35916,13.8341503 163.314662,16.2187623 163.314662,21.3536478 L163.314662,30.5717516 L163.314662,30.5717516 Z M139.354499,11.9198975 L139.316178,11.9198975 C137.400132,11.9198975 136.157895,10.652584 136.157895,9.0461743 C136.157895,7.4085115 137.436856,6.16776316 139.391223,6.16776316 C141.343994,6.16776316 142.544717,7.40538619 142.583038,9.04148633 C142.583038,10.647896 141.343994,11.9198975 139.354499,11.9198975 L139.354499,11.9198975 L139.354499,11.9198975 Z M136.842881,13.9935411 L142.13596,13.9935411 L142.13596,30.5717516 L136.842881,30.5717516 L136.842881,13.9935411 L136.842881,13.9935411 Z" transform="translate(-136 -6)" fill-rule="evenodd"/></svg>