<svg width="384" height="43" viewBox="0 0 384 43" xmlns="http://www.w3.org/2000/svg"><path d="M28.439 39.765C28.07 39.557 27.329 39.142 26.975 38.808 26.843 38.269 26.668 36.149 26.611 34.329 26.597 33.915 26.283 33.588 25.837 33.604 25.424 33.616 25.098 33.963 25.112 34.377 25.18 36.55 25.351 39.24 25.781 39.73 26.226 40.223 27.008 40.682 27.734 41.089 27.804 41.126 27.861 41.155 27.904 41.179 27.898 41.219 27.887 41.269 27.869 41.323L14.642 41.323C14.632 41.304 14.62 41.279 14.608 41.25 14.596 41.216 14.588 41.186 14.581 41.159L14.737 41.072C15.434 40.682 16.215 40.223 16.67 39.722 17.008 39.337 17.231 37.534 17.332 34.362 17.345 33.948 17.02 33.603 16.606 33.589 16.193 33.555 15.845 33.9 15.833 34.315 15.774 36.142 15.6 38.265 15.469 38.806 15.106 39.146 14.37 39.559 13.989 39.773L13.802 39.876C13.64 39.965 13.548 40.023 13.477 40.078 13.18 40.323 12.887 40.805 13.199 41.763 13.554 42.64 14.088 42.823 14.472 42.823L27.999 42.823C28.578 42.823 29.084 42.43 29.275 41.855 29.493 41.296 29.488 40.501 28.945 40.062 28.872 40.006 28.747 39.928 28.439 39.765L28.439 39.765zM41.154 3.55271368e-15L1.328 3.55271368e-15C.596 3.55271368e-15-7.10542736e-15.597-7.10542736e-15 1.329L-7.10542736e-15 28.352C-7.10542736e-15 29.076.596 29.665 1.328 29.665L41.154 29.665C41.878 29.665 42.467 29.076 42.467 28.352L42.467 1.329C42.467.597 41.878 3.55271368e-15 41.154 3.55271368e-15L41.154 3.55271368e-15zM1.5 1.5L40.967 1.5 40.967 28.165 1.5 28.165 1.5 1.5zM102.800685 6.04415049C103.344272 6.04415049 103.786627 5.59924289 103.786627 5.05140256 103.786627 4.50781566 103.344272 4.06460943 102.800685 4.06460943 102.256247 4.06460943 101.813041 4.50781566 101.813041 5.05140256 101.813041 5.59924289 102.256247 6.04415049 102.800685 6.04415049L102.800685 6.04415049zM102.764956 39.7635525C103.791731 39.7635525 104.627103 38.928181 104.627103 37.9005551 104.627103 36.8780332 103.791731 36.0477659 102.764956 36.0477659 101.743285 36.0477659 100.911316 36.8780332 100.911316 37.9005551 100.911316 38.928181 101.743285 39.7635525 102.764956 39.7635525L102.764956 39.7635525zM113.962506 2L91.6380128 2C91.2858297 2 91 2.28582974 91 2.6380128L91 41.3619872C91 41.7141703 91.2858297 42 91.6380128 42L113.962506 42C114.314689 42 114.600519 41.7141703 114.600519 41.3619872L114.600519 2.6380128C114.600519 2.28582974 114.314689 2 113.962506 2L113.962506 2zM92.2760256 35.3502052L113.324493 35.3502052 113.324493 40.7239744 92.2760256 40.7239744 92.2760256 35.3502052zM92.2760256 8.04666L113.324493 8.04666 113.324493 34.0741796 92.2760256 34.0741796 92.2760256 8.04666zM92.2760256 3.27602561L113.324493 3.27602561 113.324493 6.76978371 92.2760256 6.76978371 92.2760256 3.27602561zM193.335746 30.9240166C193.277971 30.6138535 192.982251 30.4085985 192.670568 30.4671342 192.361165 30.5256699 192.15667 30.8229095 192.214446 31.1323125L192.624956 33.3346228C192.71466 33.7626175 192.663726 34.1054694 192.468354 34.3821836 192.172634 34.8025763 191.527221 35.0944945 190.620298 35.2222088L185.709382 35.752831C184.934734 35.7216626 184.101551 35.4145403 183.718408 33.5049084L183.474383 32.1791131C183.417368 31.8697101 183.124689 31.6629347 182.809965 31.7229908 182.499802 31.7800061 182.296067 32.0772458 182.353082 32.3866487L182.600149 33.7208063C183.010659 35.7786779 184.05898 36.846004 185.713183 36.8938969L185.730668 36.8938969C185.751193 36.8938969 185.770958 36.8931367 185.791484 36.890856L190.760936 36.3541522C192.024395 36.1755043 192.912313 35.7330657 193.401884 35.0382395 193.776664 34.5053366 193.893736 33.8355971 193.743976 33.1141637L193.335746 30.9240166 193.335746 30.9240166zM207.913414 26.7550591L200.575927 6.89777641C200.322779 6.20979199 199.525325 5.82208807 198.805412 6.08055735 198.457999 6.20903179 198.182045 6.46446026 198.027724 6.80123053 197.892408 7.09771 197.872642 7.42307721 197.959306 7.73019954L169.198516 27.3320538C169.022149 27.3062069 168.84046 27.3221712 168.674736 27.3875487 168.413226 27.485615 168.20569 27.683268 168.09242 27.9424974 167.973828 28.209329 167.970027 28.5187319 168.077216 28.7886042L169.506399 32.4527864C169.674404 32.8891434 170.088715 33.1605361 170.525832 33.1605361 170.651266 33.1605361 170.777459 33.1392504 170.899092 33.0921178 171.109669 33.0100158 171.282235 32.8632965 171.397786 32.6770465L205.538537 28.0762933C205.795486 28.4009003 206.193833 28.6015941 206.624108 28.6015941 206.701649 28.6015941 206.77995 28.5947523 206.874975 28.578788 206.944914 28.5643441 207.010292 28.5468594 207.088593 28.5194921 207.439807 28.3940585 207.717281 28.1409106 207.873123 27.806421 208.027444 27.4734517 208.041128 27.0994315 207.913414 26.7550591L207.913414 26.7550591zM170.908975 31.5922358C170.734128 31.6158021 170.585888 31.7169092 170.498465 31.8590673L169.185593 28.5286145C169.390848 28.5727064 169.606746 28.504288 169.743582 28.3385636L174.729759 24.9412129 176.873534 30.7879402 170.908975 31.5922358 170.908975 31.5922358zM178.032844 30.6320984L175.70206 24.2790755 198.356892 8.83933684 205.06341 26.9899621 178.032844 30.6320984 178.032844 30.6320984zM206.837725 27.3267324C206.820241 27.3655028 206.78147 27.418717 206.665919 27.4574874L206.624108 27.4612885C206.539726 27.4612885 206.435578 27.414916 206.396807 27.3092477L199.05628 7.44436292C199.030433 7.37518437 199.047157 7.31436807 199.063882 7.27635788 199.079846 7.24214871 199.118616 7.18057221 199.194637 7.15168447 199.222764 7.14256202 199.251652 7.13724059 199.279019 7.13724059 199.363402 7.13724059 199.466029 7.18437323 199.50556 7.29232216L206.843807 27.1518855C206.871935 27.2271457 206.856731 27.2887222 206.837725 27.3267324L206.837725 27.3267324zM361.756835 31.8034661L361.756835 34.941189C361.756835 35.2940869 362.042392 35.5804968 362.396143 35.5804968 362.749041 35.5804968 363.03545 35.2940869 363.03545 34.941189L363.03545 31.5494478C363.03545 31.3866374 362.972372 31.2297939 362.860706 31.1104564L356.537526 24.4045433 368.167814 4.93293128 368.167814 17.6014555C367.165379 17.8827509 366.423782 18.7948301 366.423782 19.8850631 366.423782 21.2003324 367.493557 22.27096 368.807122 22.27096 370.123243 22.27096 371.194723 21.2003324 371.194723 19.8850631 371.194723 18.7939777 370.451421 17.8818985 369.44643 17.6006031L369.44643 4.93634092 381.083537 24.4130675 374.985393 31.1189805C374.877989 31.2374656 374.819173 31.3908995 374.819173 31.5494478L374.819173 34.941189C374.819173 35.2940869 375.105583 35.5804968 375.45848 35.5804968 375.811378 35.5804968 376.097788 35.2940869 376.097788 34.941189L376.097788 31.7966468 382.348514 24.9228089C382.538602 24.7139683 382.569288 24.4062482 382.425231 24.1641636L369.355222 2.28960645C369.123366 1.90346452 368.48832 1.90346452 368.257317 2.28960645L355.191569 24.1641636C355.044955 24.4096578 355.079904 24.7224924 355.275958 24.9304806L361.756835 31.8034661 361.756835 31.8034661zM368.807122 18.782044C369.4183 18.782044 369.916108 19.2772944 369.916108 19.8850631 369.916108 20.495389 369.4183 20.9923443 368.807122 20.9923443 368.198501 20.9923443 367.702398 20.495389 367.702398 19.8850631 367.702398 19.2772944 368.198501 18.782044 368.807122 18.782044L368.807122 18.782044zM382.388577 37.3910167C382.325499 37.0952302 382.064662 36.8838324 381.762908 36.8838324L355.448997 36.8838324C355.146392 36.8838324 354.885554 37.0952302 354.823328 37.3910167L354.013538 41.2285685C353.974327 41.4169512 354.02121 41.6138581 354.142252 41.7630299 354.264147 41.9130541 354.446563 42 354.639207 42L382.573551 42C382.766195 42 382.948611 41.9130541 383.069653 41.7630299 383.191548 41.6138581 383.239283 41.4169512 383.19922 41.2285685L382.388577 37.3910167 382.388577 37.3910167zM355.427687 40.7213843L355.967263 38.1624481 381.244643 38.1624481 381.785071 40.7213843 355.427687 40.7213843 355.427687 40.7213843zM277.001837 8.9986341C277.391823 8.9986341 277.708334 8.68212326 277.708334 8.29213668L277.708334 5.18072204C277.708334 4.75682359 278.051221 4.41299484 278.473236 4.41299484L287.526764 4.41299484C287.948779 4.41299484 288.291666 4.75682359 288.291666 5.18072204L288.291666 8.29213668C288.291666 8.68212326 288.608177 8.9986341 288.998163 8.9986341 289.38815 8.9986341 289.704661 8.68212326 289.704661 8.29213668L289.704661 5.18072204C289.704661 3.97779243 288.72781 3 287.526764 3L278.473236 3C277.27219 3 276.295339 3.97779243 276.295339 5.18072204L276.295339 8.29213668C276.295339 8.68212326 276.610908 8.9986341 277.001837 8.9986341L277.001837 8.9986341zM302.293503 10.4851047L263.706497 10.4851047C263.316511 10.4851047 263 10.8016155 263 11.1916021L263 38.630078C263 39.0200645 263.316511 39.3365754 263.706497 39.3365754L302.293503 39.3365754C302.683489 39.3365754 303 39.0200645 303 38.630078L303 11.1916021C303 10.8016155 302.683489 10.4851047 302.293503 10.4851047L302.293503 10.4851047zM264.412995 11.8980995L269.546876 11.8980995 269.546876 37.9235805 264.412995 37.9235805 264.412995 11.8980995zM270.959871 11.8980995L295.052375 11.8980995 295.052375 37.9235805 270.959871 37.9235805 270.959871 11.8980995zM296.46537 11.8980995L301.587005 11.8980995 301.587005 37.9235805 296.46537 37.9235805 296.46537 11.8980995z" fill="#5B5B58" fill-rule="evenodd"/></svg>