<svg width="36" height="24" viewBox="0 0 36 24" xmlns="http://www.w3.org/2000/svg"><path d="M22.946172,10.6093131 L32.4557008,10.6093131 L32.4557008,7.91617519 L22.946172,7.91617519 L22.946172,10.6093131 L22.946172,10.6093131 Z M25.1989844,16.4856247 C24.5930264,17.095081 24.2108718,17.9207295 24.0546317,18.9625703 L31.4506973,18.9625703 C31.3725773,17.8507244 30.9883112,17.010663 30.3084559,16.4320914 C29.6201552,15.8576376 28.7735031,15.5714403 27.7600542,15.5714403 C26.6621513,15.5714403 25.8049424,15.8761684 25.1989844,16.4856247 L25.1989844,16.4856247 L25.1989844,16.4856247 Z M31.6174941,12.8700665 C32.7639581,13.3683381 33.7077324,14.1589841 34.4509283,15.2378865 C35.1286722,16.1891324 35.5636107,17.2927425 35.7620778,18.5466576 C35.8782021,19.2796523 35.9246519,20.3420828 35.9056497,21.7236543 L23.9490641,21.7236543 C24.0208501,23.327595 24.5866924,24.4538538 25.6677045,25.0983126 C26.3222236,25.4998125 27.1097579,25.701592 28.03453,25.701592 C29.0078632,25.701592 29.8038428,25.4565741 30.4140235,24.9685973 C30.7497285,24.7029896 31.0453177,24.3364923 31.2986799,23.8670462 L35.679735,23.8670462 C35.5636107,24.8141742 35.03155,25.779833 34.0898871,26.7599046 C32.6203862,28.3144299 30.5618181,29.092722 27.9162943,29.092722 C25.7310451,29.092722 23.8033808,28.4379683 22.1375242,27.124343 C20.4632222,25.8127766 19.6313496,23.6755616 19.6313496,20.7188751 C19.6313496,17.9454372 20.3851022,15.8185171 21.8904961,14.3381149 C23.4001126,12.8618306 25.3531131,12.118541 27.7579429,12.118541 C29.1873281,12.118541 30.4731414,12.3697358 31.6174941,12.8700665 L31.6174941,12.8700665 L31.6174941,12.8700665 Z M4.42328214,19.0202216 L4.42328214,24.7915255 L9.81145208,24.7915255 C10.7742285,24.7915255 11.5258698,24.6638691 12.0600418,24.4106153 C13.033375,23.9370513 13.5189859,23.0393387 13.5189859,21.7092415 C13.5189859,20.5809238 13.0502658,19.8088086 12.1064916,19.3867189 C11.5786536,19.1519959 10.8375691,19.0284575 9.88746075,19.0202216 L4.42328214,19.0202216 L4.42328214,19.0202216 Z M4.42328214,10.6649054 L4.42328214,15.4396659 L9.81989749,15.4396659 C10.7805626,15.4396659 11.5638741,15.2605352 12.1677208,14.9022737 C12.7673447,14.5440123 13.069268,13.9098483 13.069268,13.0038998 C13.069268,11.9929436 12.6723339,11.327895 11.8784656,11.0025771 C11.1901648,10.7781489 10.3160652,10.6649054 9.25405519,10.6649054 L4.42328214,10.6649054 L4.42328214,10.6649054 Z M16.4748785,9.21332876 C17.1526225,10.1336901 17.4925501,11.2331822 17.4925501,12.5159229 C17.4925501,13.8357252 17.1526225,14.9002148 16.4664331,15.7032146 C16.0821671,16.1520709 15.5184362,16.5638657 14.7731289,16.934481 C15.9048135,17.3380399 16.7577997,17.9742628 17.3384215,18.8452088 C17.9127092,19.7140958 18.2019644,20.7724084 18.2019644,22.0160286 C18.2019644,23.2987694 17.8725935,24.4497358 17.2117403,25.466869 C16.7936927,26.1401534 16.2700774,26.7084302 15.6408946,27.1696404 C14.9335917,27.6987967 14.0996077,28.0591171 13.1347199,28.2567786 C12.1698321,28.4523811 11.1268243,28.5470939 9.9993624,28.5470939 L0,28.5470939 L0,6.90727796 L10.7235561,6.90727796 C13.4303092,6.94639847 15.3453053,7.71439574 16.4748785,9.21332876 L16.4748785,9.21332876 L16.4748785,9.21332876 Z" transform="translate(0 -6)" fill-rule="evenodd"/></svg>