<svg width="37" height="21" viewBox="0 0 37 21" xmlns="http://www.w3.org/2000/svg"><path d="M262.590226,24.7684894 C262.590226,25.2151975 262.751778,25.5529575 263.074815,25.7819066 C263.397887,26.0108213 263.743215,26.0917601 264.110835,26.0247917 C264.456163,25.9577889 264.698458,25.834939 264.837754,25.6562763 C264.976981,25.4776137 265.046629,25.1816618 265.046629,24.7684894 L265.046629,19.9107872 C265.046629,19.5645833 264.926885,19.2714461 264.687364,19.0313756 C264.447877,18.7912708 264.155452,18.6712356 263.810089,18.6712356 C263.475889,18.6712356 263.189046,18.7912708 262.949525,19.0313756 C262.710003,19.2714461 262.590226,19.5645833 262.590226,19.9107872 L262.590226,24.7684894 L262.590226,24.7684894 Z M266.433524,26.8455758 C266.433524,27.1694684 266.54772,27.4123192 266.776079,27.5742655 C267.004471,27.7362118 267.296896,27.8171506 267.653353,27.8171506 C268.020973,27.8171506 268.318945,27.7361775 268.547338,27.5742655 C268.775696,27.4123535 268.889893,27.1694684 268.889893,26.8455758 L268.889893,15.5221046 C268.889893,15.1870906 268.770115,14.8995141 268.530628,14.6594437 C268.291107,14.4193732 267.998682,14.2993037 267.653353,14.2993037 C267.319154,14.2993037 267.032276,14.4193732 266.792789,14.6594437 C266.553267,14.8995484 266.433524,15.1870906 266.433524,15.5221046 L266.433524,26.8455758 L266.433524,26.8455758 Z M270.260112,27.3815982 C270.260112,27.7054564 270.377082,27.9483415 270.611022,28.1102878 C270.844962,28.2721998 271.145742,28.3531729 271.513396,28.3531729 C271.869853,28.3531729 272.162278,28.2721998 272.390636,28.1102878 C272.619029,27.9483415 272.733225,27.7054564 272.733225,27.3815982 L272.733225,17.046418 C272.733225,16.7002484 272.613448,16.4042965 272.373961,16.1586311 C272.134439,15.9129656 271.847596,15.79015 271.513396,15.79015 C271.168033,15.79015 270.872835,15.9129656 270.627766,16.1586311 C270.382698,16.4042965 270.260146,16.7002484 270.260146,17.046418 L270.260146,27.3815982 L270.260112,27.3815982 Z M274.103411,27.4318502 C274.103411,28.0460654 274.515579,28.3531729 275.33995,28.3531729 C276.164287,28.3531729 276.576455,28.0460654 276.576455,27.4318502 L276.576455,10.6811531 C276.576455,9.74311404 276.292385,9.21268673 275.724246,9.08983685 C275.356626,9.00048835 274.994553,9.10658754 274.638096,9.40810009 C274.281605,9.70961264 274.103376,10.1339408 274.103376,10.6811531 L274.103376,27.4318502 L274.103411,27.4318502 Z M278.013583,27.9176205 L278.013583,9.69286194 C278.013583,9.11218255 278.18623,8.76601292 278.531593,8.65431872 C279.277961,8.47565606 280.018782,8.38630757 280.754022,8.38630757 C282.458407,8.38630757 284.045891,8.7883243 285.516336,9.59235776 C286.986815,10.3963912 288.176032,11.4935619 289.083919,12.8838698 C289.99184,14.2742119 290.518205,15.8068664 290.663013,17.4819705 C291.342542,17.1916136 292.066619,17.0464523 292.835278,17.0464523 C294.394889,17.0464523 295.728915,17.5992253 296.837321,18.7047713 C297.945762,19.8103517 298.5,21.1392174 298.5,22.6914716 C298.5,24.2548814 297.945762,25.5893422 296.837321,26.6948882 C295.728915,27.8004342 294.40047,28.3532072 292.851988,28.3532072 L278.314295,28.3364565 C278.214,28.3029551 278.138805,28.241513 278.088675,28.1521989 C278.038545,28.0628847 278.013583,27.9846232 278.013583,27.9176205 L278.013583,27.9176205 L278.013583,27.9176205 Z" transform="translate(-262 -8)" fill-rule="evenodd"/></svg>