<svg width="35" height="34" viewBox="0 0 35 34" xmlns="http://www.w3.org/2000/svg"><path d="M89.7574564,30.046887 C89.6077179,29.1708952 88.8246264,24.9069352 86.8962382,19.6729843 C91.6413277,18.9229913 95.7510406,20.2089793 96.0545644,20.3069784 C95.4009764,24.3549404 93.0557488,27.8449077 89.7574564,30.046887 L89.7574564,30.046887 L89.7574564,30.046887 Z M81.5461245,32.5268637 C77.988825,32.5268637 74.7269554,31.2768755 72.1834256,29.196895 C72.3776808,29.3528935 72.5132548,29.4508926 72.5132548,29.4508926 C72.5132548,29.4508926 75.3299561,23.3789495 84.0451375,20.3769777 C84.0775134,20.3649778 84.1119128,20.3569779 84.1442887,20.346978 C86.2122978,25.6569282 87.0641881,30.1048865 87.2827252,31.3748745 C85.5202634,32.1148676 83.5797343,32.5268637 81.5461245,32.5268637 L81.5461245,32.5268637 L81.5461245,32.5268637 Z M66.8494998,17.999 C66.8494998,17.8450015 66.8575938,17.6930029 66.8616408,17.5410043 C67.1226713,17.5470042 74.3829617,17.7090027 81.9487995,15.4710237 C82.3696859,16.2850161 82.7723609,17.1150083 83.1406365,17.9410006 C82.9463812,17.9930001 82.7541494,18.0509995 82.5619177,18.1149989 C74.6318513,20.6469752 70.6091486,27.698909 70.6091486,27.698909 C70.6091486,27.698909 70.615219,27.704909 70.615219,27.706909 C68.2740384,25.1329331 66.8494998,21.730965 66.8494998,17.999 L66.8494998,17.999 L66.8494998,17.999 Z M75.2753218,4.8651232 C75.4716006,5.12312078 78.1891508,8.76508662 80.7326806,13.2330447 C73.6767629,15.0870273 67.5516517,15.013028 67.1651646,15.0070281 C68.1182295,10.5070703 71.1757264,6.77710527 75.2753218,4.8651232 L75.2753218,4.8651232 L75.2753218,4.8651232 Z M78.0252479,3.89713228 C78.0252479,3.89913226 78.0232244,3.90113224 78.0232244,3.90113224 C78.0232244,3.90113224 78.005013,3.90513221 77.9787076,3.90913217 C77.9948955,3.90513221 78.00906,3.90313223 78.0252479,3.89713228 L78.0252479,3.89713228 L78.0252479,3.89713228 Z M91.2507937,7.10110223 C91.2143708,7.15510172 89.1220798,10.3050722 83.5736638,12.3590529 C81.0625099,7.7970957 78.3024663,4.17312969 78.0819057,3.88513239 C79.192803,3.61913489 80.3522641,3.47513624 81.5461245,3.47513624 C85.2653034,3.47513624 88.662747,4.84712337 91.2507937,7.10110223 L91.2507937,7.10110223 L91.2507937,7.10110223 Z M96.2366787,17.8550014 C96.0242121,17.8090018 91.0504679,16.7510117 86.0018546,17.3790058 C85.896633,17.1310082 85.7934349,16.8810105 85.6841663,16.6310128 C85.378619,15.9190195 85.0487897,15.2150261 84.7068195,14.5230326 C90.5101955,12.1810546 92.8655405,8.81508615 92.8938694,8.77508653 C94.9537846,11.2490633 96.2022794,14.4090337 96.2366787,17.8550014 L96.2366787,17.8550014 L96.2366787,17.8550014 Z M98.403839,14.5770321 C98.1772079,13.4850423 97.8372612,12.4070525 97.3981633,11.3790621 C96.969183,10.3710716 96.4329575,9.39908067 95.8117454,8.49108919 C95.1986272,7.59109763 94.4904049,6.74310559 93.7133838,5.97511279 C92.9343393,5.20512001 92.078402,4.50712656 91.165807,3.89913226 C90.2471415,3.28313804 89.2637242,2.75714297 88.2438841,2.32914699 C87.203809,1.89715104 86.1151702,1.56115419 85.0103434,1.33915628 C83.8771877,1.10915843 82.7116561,0.991159539 81.5461245,0.991159539 C80.3785695,0.991159539 79.2130379,1.10915843 78.0798822,1.33915628 C76.9750554,1.56115419 75.8864165,1.89715104 74.8463415,2.32914699 C73.8265013,2.75714297 72.8430841,3.28313804 71.9223951,3.89913226 C71.0118235,4.50712656 70.1558863,5.20512001 69.3768417,5.97511279 C68.5998207,6.74310559 67.8936219,7.59109763 67.2784802,8.49108919 C66.6572681,9.39908067 66.1210426,10.3710716 65.6920622,11.3790621 C65.2509409,12.4070525 64.9130177,13.4850423 64.6863865,14.5770321 C64.4557084,15.6950216 64.3383459,16.8470108 64.3383459,17.999 C64.3383459,19.1549892 64.4557084,20.3069784 64.6863865,21.4269679 C64.9130177,22.5189576 65.2509409,23.5949475 65.6920622,24.6209379 C66.1210426,25.6289284 66.6572681,26.6049193 67.2784802,27.5129108 C67.8936219,28.4129023 68.5998207,29.2568944 69.3768417,30.0288872 C70.1558863,30.79688 71.0118235,31.4928734 71.9223951,32.1028677 C72.8430841,32.716862 73.8265013,33.244857 74.8463415,33.670853 C75.8864165,34.1068489 76.9750554,34.4388458 78.0798822,34.6608437 C79.2130379,34.8928415 80.3785695,35.0088405 81.5461245,35.0088405 C82.7116561,35.0088405 83.8771877,34.8928415 85.0103434,34.6608437 C86.1151702,34.4388458 87.203809,34.1068489 88.2438841,33.670853 C89.2637242,33.244857 90.2471415,32.716862 91.165807,32.1028677 C92.078402,31.4928734 92.9343393,30.79688 93.7133838,30.0288872 C94.4904049,29.2568944 95.1986272,28.4129023 95.8117454,27.5129108 C96.4329575,26.6049193 96.969183,25.6289284 97.3981633,24.6209379 C97.8372612,23.5949475 98.1772079,22.5189576 98.403839,21.4269679 C98.6345171,20.3069784 98.7518797,19.1549892 98.7518797,17.999 C98.7518797,16.8470108 98.6345171,15.6950216 98.403839,14.5770321 L98.403839,14.5770321 L98.403839,14.5770321 Z" transform="translate(-64 -1)" fill-rule="evenodd"/></svg>