<?xml version="1.0" encoding="UTF-8" standalone="no"?>
<svg width="1571px" height="1037px" viewBox="0 0 1571 1037" version="1.1" xmlns="http://www.w3.org/2000/svg" xmlns:xlink="http://www.w3.org/1999/xlink">
    <!-- Generator: Sketch 3.7 (28169) - http://www.bohemiancoding.com/sketch -->
    <title>42 Logo</title>
    <desc>Created with Sketch.</desc>
    <defs></defs>
    <g id="Page-1" stroke="none" stroke-width="1" fill="none" fill-rule="evenodd">
        <g id="42-Logo">
            <g id="Group-3" transform="translate(464.978957, 128.466667)" fill="#FFFFFF">
                <path d="M374.776084,531.242211 L0.00148273611,531.242211 L0.00148273611,426.126092 L1.12539671,426.126092 L0.280237126,423.860015 L357.86874,67.7163208 L357.86874,198.32878 L129.058834,426.126092 L375.053484,426.126092 L479.884281,318.179762 L479.884281,553.180811 L374.776084,657.163893 L374.776084,531.242211 Z" id="Combined-Shape"></path>
                <path d="M534.552465,653.922211 L730.955691,458.70869 L730.955691,457.575652 C777.45133,409.126346 805.913933,343.111967 805.913933,270.862898 C805.913933,121.263106 684.181298,0.00119267169 533.989026,0.00119267169 C475.939907,0.00119267169 422.116586,18.1357658 377.877671,49.0170176 C377.032512,49.5835367 375.905632,50.4362969 375.060473,50.9998343 L375.060473,178.779698 L406.340274,147.615187 C438.741023,114.464877 483.831028,93.7839497 533.989026,93.7839497 C632.332981,93.7839497 711.798741,173.114507 711.798741,270.862898 C711.798741,320.728501 690.942574,365.778693 657.690734,398.076242 C655.439941,400.059059 653.746656,402.611377 652.341022,405.160712 L386.895672,670.357227 L375.060473,681.69059 L375.060473,759.32159 L711.232335,759.32159 L814.650214,654.208452 L534.552465,654.208452 L534.552465,653.922211 Z" id="Fill-3"></path>
            </g>
            <path d="M464.774889,488.738462 L464.774889,709.764103" id="Line" stroke="#000000" stroke-width="0.25" stroke-dasharray="3"></path>
            <path d="M823.24191,139.517949 L823.24191,360.54359" id="Line-Copy-10" stroke="#000000" stroke-width="0.25" stroke-dasharray="3"></path>
            <path d="M839.874447,128.466667 L839.874447,924.158974" id="Line-Copy-9" stroke="#000000" stroke-width="0.25" stroke-dasharray="3"></path>
            <ellipse id="Oval-20" stroke="#000000" stroke-width="0.25" stroke-dasharray="3" cx="1000.5" cy="399.266347" rx="270.5" ry="271.259588"></ellipse>
            <ellipse id="Oval-20" stroke="#000000" stroke-width="0.25" stroke-dasharray="3" cx="999.465252" cy="399.670513" rx="176.876393" ry="177.373077"></ellipse>
            <path d="M0.555525184,1017.3244 L1012.45026,5.42968869" id="Line" stroke="#000000" stroke-width="0.25" stroke-dasharray="3"></path>
            <path d="M613.600088,1036.64253 L1572.14899,78.0936347" id="Line-Copy-3" stroke="#000000" stroke-width="0.25" stroke-dasharray="3"></path>
            <path d="M606.214068,1020.34157 L1556.80962,69.7459996" id="Line-Copy-11" stroke="#000000" stroke-width="0.25" stroke-dasharray="3"></path>
            <path d="M371,1035 L1381,3.66844688e-09" id="Line-Copy-12" stroke="#000000" stroke-width="0.25" stroke-dasharray="3"></path>
            <path d="M757.02763,1025.03855 L1564.08968,217.97649" id="Line-Copy-4" stroke="#000000" stroke-width="0.25" stroke-dasharray="3"></path>
            <path d="M1136,928.999997 L1334.38143,725.235897" id="Line-Copy-5" stroke="#000000" stroke-width="0.25" stroke-dasharray="3"></path>
            <path d="M819.833775,888.584615 L1230.00353,888.584615" id="Line" stroke="#000000" stroke-width="0.25" stroke-dasharray="3"></path>
            <path d="M819.833775,783.492308 L1306.93263,783.492308" id="Line-Copy-6" stroke="#000000" stroke-width="0.25" stroke-dasharray="3"></path>
            <path d="M418.693546,660.138462 L905.792396,660.138462" id="Line-Copy-7" stroke="#000000" stroke-width="0.25" stroke-dasharray="3"></path>
            <path d="M418.693546,555.046154 L905.792396,555.046154" id="Line-Copy-8" stroke="#000000" stroke-width="0.25" stroke-dasharray="3"></path>
            <path d="M115.974267,1032.07262 L1139.55005,10.5014989" id="Line-Copy-2" stroke="#000000" stroke-width="0.25" stroke-dasharray="3"></path>
        </g>
    </g>
</svg>