<?xml version="1.0" encoding="UTF-8" standalone="no"?>
<svg width="40px" height="40px" viewBox="0 0 40 40" version="1.1" xmlns="http://www.w3.org/2000/svg" xmlns:xlink="http://www.w3.org/1999/xlink">
    <!-- Generator: Sketch 3.7 (28169) - http://www.bohemiancoding.com/sketch -->
    <title>Fill 143</title>
    <desc>Created with Sketch.</desc>
    <defs></defs>
    <g id="Page-1" stroke="none" stroke-width="1" fill="none" fill-rule="evenodd">
        <g id="portfolio" transform="translate(-1400.000000, -60.000000)" fill="#FFFFFF">
            <g id="Prolect-Litebox">
                <g id="Controls" transform="translate(60.000000, 60.000000)">
                    <path d="M1360.96457,19.9116625 L1379.60504,1.27118966 C1379.89609,0.980149558 1379.89609,0.509320178 1379.60504,0.218280076 C1379.314,-0.0727600255 1378.84218,-0.0727600255 1378.55114,0.218280076 L1359.91166,18.8577596 L1341.27119,0.218280076 C1340.98015,-0.0727600255 1340.50932,-0.0727600255 1340.21828,0.218280076 C1339.92724,0.509320178 1339.92724,0.980149558 1340.21828,1.27118966 L1358.85776,19.9116625 L1340.21828,38.5511421 C1339.92724,38.8421822 1339.92724,39.3130116 1340.21828,39.6040517 C1340.3633,39.7500684 1340.55402,39.8225801 1340.74473,39.8225801 C1340.93545,39.8225801 1341.12617,39.7500684 1341.27119,39.6040517 L1359.91166,20.9655654 L1378.55114,39.6040517 C1378.69716,39.7500684 1378.88688,39.8225801 1379.0776,39.8225801 C1379.26831,39.8225801 1379.45903,39.7500684 1379.60504,39.6040517 C1379.89609,39.3130116 1379.89609,38.8421822 1379.60504,38.5511421 L1360.96457,19.9116625" id="Fill-143"></path>
                </g>
            </g>
        </g>
    </g>
</svg>