<?xml version="1.0" encoding="UTF-8" standalone="no"?>
<svg width="45px" height="31px" viewBox="0 0 45 31" version="1.1" xmlns="http://www.w3.org/2000/svg" xmlns:xlink="http://www.w3.org/1999/xlink">
    <!-- Generator: Sketch 3.7 (28169) - http://www.bohemiancoding.com/sketch -->
    <title>Fill 145</title>
    <desc>Created with Sketch.</desc>
    <defs></defs>
    <g id="Page-1" stroke="none" stroke-width="1" fill="none" fill-rule="evenodd">
        <g id="portfolio" transform="translate(-383.000000, -807.000000)" fill="#FFFFFF">
            <g id="Portfolio" transform="translate(255.000000, 290.000000)">
                <g id="Portfolio-projects" transform="translate(0.000000, 62.000000)">
                    <g id="Hover" transform="translate(0.000000, 320.000000)">
                        <path d="M150.253877,142.847 C146.115877,142.847 142.748877,146.214 142.748877,150.353 C142.748877,154.491 146.115877,157.859 150.253877,157.859 C154.393877,157.859 157.760877,154.491 157.760877,150.353 C157.760877,146.214 154.393877,142.847 150.253877,142.847 L150.253877,142.847 Z M150.253877,156.359 C146.941877,156.359 144.248877,153.664 144.248877,150.353 C144.248877,147.041 146.941877,144.347 150.253877,144.347 C153.565877,144.347 156.260877,147.041 156.260877,150.353 C156.260877,153.664 153.565877,156.359 150.253877,156.359 L150.253877,156.359 Z M172.361877,150.062 C167.164877,143.049 159.953877,135 150.250877,135 C142.164877,135 135.808877,140.689 128.174877,149.867 C127.940877,150.147 127.941877,150.551 128.176877,150.829 L128.824877,151.604 C135.158877,159.17 140.628877,165.705 150.250877,165.705 C159.893877,165.705 167.096877,157.185 171.863877,151.547 L172.332877,150.993 C172.558877,150.728 172.568877,150.342 172.361877,150.062 L172.361877,150.062 Z M170.717877,150.579 C165.855877,156.329 159.195877,164.205 150.250877,164.205 C141.328877,164.205 136.066877,157.919 129.974877,150.641 L129.726877,150.346 C137.082877,141.568 142.850877,136.5 150.250877,136.5 C159.072877,136.5 165.844877,143.866 170.803877,150.48 L170.717877,150.579 L170.717877,150.579 Z" id="Fill-145"></path>
                    </g>
                </g>
            </g>
        </g>
    </g>
</svg>