<svg width="37" height="21" viewBox="0 0 37 21" xmlns="http://www.w3.org/2000/svg"><title>Soundcloud</title><path d="M.59 16.768c0 .447.162.785.485 1.014.323.229.668.31 1.036.243.345-.067.587-.19.727-.369.139-.178.209-.474.209-.888v-4.857c0-.346-.12-.64-.36-.88s-.532-.36-.877-.36c-.334 0-.621.12-.86.36-.24.24-.36.534-.36.88v4.857zm3.844 2.078c0 .323.114.566.342.728.228.162.52.243.877.243.368 0 .666-.08.894-.243.229-.162.343-.405.343-.728V7.522c0-.335-.12-.622-.36-.863-.239-.24-.531-.36-.877-.36-.334 0-.62.12-.86.36s-.36.528-.36.863v11.324zm3.826.536c0 .323.117.566.351.728.234.162.535.243.902.243.357 0 .65-.08.878-.243.228-.162.342-.405.342-.728V9.046c0-.346-.12-.642-.359-.887a1.16 1.16 0 0 0-.86-.369c-.346 0-.641.123-.886.369a1.212 1.212 0 0 0-.368.887v10.336zm3.843.05c0 .614.413.921 1.237.921.824 0 1.236-.307 1.236-.921V2.682c0-.939-.284-1.47-.852-1.592-.367-.09-.73.017-1.086.318-.356.302-.535.726-.535 1.273v16.75zm3.91.486V1.693c0-.58.173-.927.519-1.039a9.52 9.52 0 0 1 2.222-.268 9.77 9.77 0 0 1 4.762 1.206 9.82 9.82 0 0 1 3.568 3.292 9.829 9.829 0 0 1 1.579 4.598 5.47 5.47 0 0 1 2.172-.436c1.56 0 2.894.553 4.002 1.659 1.109 1.105 1.663 2.434 1.663 3.986 0 1.564-.554 2.898-1.663 4.004-1.108 1.105-2.437 1.658-3.985 1.658l-14.538-.017a.391.391 0 0 1-.225-.184.496.496 0 0 1-.075-.234z" fill="#000" fill-rule="evenodd"/></svg>