<svg width="37" height="36" viewBox="0 0 37 36" xmlns="http://www.w3.org/2000/svg"><title>Instagram</title><path d="M18.466.252c-4.876 0-5.488.02-7.403.106-1.91.087-3.216.387-4.358.825a8.812 8.812 0 0 0-3.18 2.048 8.69 8.69 0 0 0-2.071 3.143c-.444 1.13-.748 2.42-.835 4.308C.532 12.575.511 13.18.511 18c0 4.82.02 5.425.108 7.318.087 1.889.391 3.179.835 4.308a8.69 8.69 0 0 0 2.07 3.143c.999.987 2 1.594 3.181 2.048 1.142.438 2.447.738 4.358.825 1.915.086 2.527.106 7.403.106 4.876 0 5.488-.02 7.403-.106 1.911-.087 3.216-.387 4.358-.825a8.813 8.813 0 0 0 3.18-2.048 8.691 8.691 0 0 0 2.071-3.143c.444-1.13.748-2.42.835-4.308.087-1.893.108-2.498.108-7.318 0-4.82-.02-5.425-.108-7.318-.087-1.889-.39-3.179-.835-4.308a8.691 8.691 0 0 0-2.07-3.143 8.812 8.812 0 0 0-3.18-2.048C29.084.745 27.78.445 25.867.358 23.955.272 23.343.252 18.467.252zm0 3.198c4.794 0 5.362.018 7.255.103 1.751.079 2.702.368 3.334.611a5.569 5.569 0 0 1 2.065 1.328 5.493 5.493 0 0 1 1.343 2.04c.246.626.538 1.566.618 3.296.087 1.872.105 2.433.105 7.172s-.018 5.3-.105 7.172c-.08 1.73-.372 2.67-.618 3.295a5.493 5.493 0 0 1-1.343 2.041 5.569 5.569 0 0 1-2.065 1.328c-.632.243-1.583.532-3.334.611-1.893.085-2.46.103-7.255.103-4.794 0-5.362-.018-7.255-.103-1.75-.079-2.701-.368-3.334-.611a5.569 5.569 0 0 1-2.065-1.328 5.493 5.493 0 0 1-1.343-2.04c-.246-.626-.538-1.566-.618-3.296-.086-1.872-.105-2.433-.105-7.172s.019-5.3.105-7.172c.08-1.73.372-2.67.618-3.295a5.493 5.493 0 0 1 1.343-2.041 5.569 5.569 0 0 1 2.065-1.328c.633-.243 1.583-.532 3.334-.611 1.893-.085 2.461-.103 7.255-.103zm0 5.436c-5.092 0-9.22 4.08-9.22 9.114 0 5.034 4.128 9.114 9.22 9.114 5.092 0 9.22-4.08 9.22-9.114 0-5.034-4.128-9.114-9.22-9.114zm0 15.03c-3.305 0-5.985-2.649-5.985-5.916 0-3.267 2.68-5.916 5.985-5.916 3.306 0 5.985 2.649 5.985 5.916 0 3.267-2.68 5.916-5.985 5.916zm11.74-15.39c0 1.176-.966 2.13-2.155 2.13-1.19 0-2.155-.954-2.155-2.13s.965-2.13 2.155-2.13 2.154.954 2.154 2.13z" fill="#000" fill-rule="evenodd"/></svg>