<svg width="384" height="43" viewBox="0 0 384 43" xmlns="http://www.w3.org/2000/svg"><title>Group</title><g fill="#5B5B58" fill-rule="evenodd"><path d="M28.439 39.765c-.369-.208-1.11-.623-1.464-.957-.132-.539-.307-2.659-.364-4.479a.73.73 0 0 0-.774-.725.748.748 0 0 0-.725.773c.068 2.173.239 4.863.669 5.353.445.493 1.227.952 1.953 1.359.07.037.127.066.17.09a.872.872 0 0 1-.035.144H14.642a.89.89 0 0 1-.034-.073 1.068 1.068 0 0 1-.027-.091l.156-.087c.697-.39 1.478-.849 1.933-1.35.338-.385.561-2.188.662-5.36a.75.75 0 0 0-.726-.773c-.413-.034-.761.311-.773.726-.059 1.827-.233 3.95-.364 4.491-.363.34-1.099.753-1.48.967l-.187.103a2.462 2.462 0 0 0-.325.202c-.297.245-.59.727-.278 1.685.355.877.889 1.06 1.273 1.06h13.527c.579 0 1.085-.393 1.276-.968.218-.559.213-1.354-.33-1.793-.073-.056-.198-.134-.506-.297zM41.154 0H1.328A1.33 1.33 0 0 0 0 1.329v27.023c0 .724.596 1.313 1.328 1.313h39.826c.724 0 1.313-.589 1.313-1.313V1.329C42.467.597 41.878 0 41.154 0zM1.5 1.5h39.467v26.665H1.5V1.5zM102.8 6.044a.99.99 0 0 0 0-1.98.989.989 0 0 0 0 1.98zm-.035 33.72a1.864 1.864 0 0 0 1.862-1.863 1.859 1.859 0 0 0-3.716 0 1.86 1.86 0 0 0 1.854 1.863zM113.963 2H91.638a.638.638 0 0 0-.638.638v38.724c0 .352.286.638.638.638h22.325a.638.638 0 0 0 .638-.638V2.638a.638.638 0 0 0-.638-.638zM92.276 35.35h21.048v5.374H92.276V35.35zm0-27.303h21.048v26.027H92.276V8.047zm0-4.771h21.048V6.77H92.276V3.276zM193.336 30.924a.571.571 0 0 0-1.121.208l.41 2.203c.09.428.039.77-.157 1.047-.295.42-.94.712-1.848.84l-4.91.53c-.775-.03-1.608-.337-1.992-2.247l-.244-1.326a.565.565 0 0 0-.664-.456.57.57 0 0 0-.457.664l.247 1.334c.41 2.058 1.459 3.125 3.113 3.173h.018c.02 0 .04 0 .06-.003l4.97-.537c1.263-.178 2.151-.62 2.64-1.316.376-.533.493-1.202.343-1.924l-.408-2.19zm14.577-4.169l-7.337-19.857a1.4 1.4 0 0 0-1.77-.817 1.373 1.373 0 0 0-.778.72 1.343 1.343 0 0 0-.069.93L169.2 27.331a1.024 1.024 0 0 0-.524.056 1.026 1.026 0 0 0-.583.554 1.1 1.1 0 0 0-.015.847l1.43 3.664c.167.436.582.708 1.019.708a1.023 1.023 0 0 0 .872-.483l34.14-4.602a1.387 1.387 0 0 0 1.55.443 1.363 1.363 0 0 0 .825-1.764zm-37.004 4.837a.57.57 0 0 0-.41.267l-1.313-3.33a.566.566 0 0 0 .558-.19l4.986-3.398 2.144 5.847-5.965.804zm7.124-.96l-2.33-6.353 22.654-15.44 6.706 18.151-27.03 3.642zm28.805-3.305c-.018.039-.057.092-.172.13l-.042.004a.24.24 0 0 1-.227-.152l-7.34-19.865a.22.22 0 0 1 .007-.168.243.243 0 0 1 .13-.124.277.277 0 0 1 .085-.015.24.24 0 0 1 .227.155l7.338 19.86a.215.215 0 0 1-.006.175zM361.757 31.803v3.138a.639.639 0 1 0 1.278 0V31.55a.644.644 0 0 0-.174-.439l-6.323-6.705 11.63-19.472V17.6a2.379 2.379 0 0 0-1.744 2.284 2.388 2.388 0 0 0 2.383 2.386 2.39 2.39 0 0 0 2.388-2.386 2.38 2.38 0 0 0-1.749-2.284V4.936l11.638 19.477-6.099 6.706a.64.64 0 0 0-.166.43v3.392a.64.64 0 0 0 1.279 0v-3.144l6.25-6.874a.64.64 0 0 0 .077-.759L369.355 2.29c-.232-.387-.867-.387-1.098 0l-13.065 21.874a.64.64 0 0 0 .084.766l6.48 6.873zm7.05-13.021c.611 0 1.11.495 1.11 1.103a1.108 1.108 0 0 1-2.214 0c0-.608.496-1.103 1.104-1.103zm13.582 18.609a.64.64 0 0 0-.626-.507h-26.314a.639.639 0 0 0-.626.507l-.81 3.838a.642.642 0 0 0 .626.771h27.935a.637.637 0 0 0 .625-.771l-.81-3.838zm-26.961 3.33l.54-2.559h25.277l.54 2.56h-26.357zM277.002 8.999c.39 0 .706-.317.706-.707V5.181c0-.424.343-.768.765-.768h9.054c.422 0 .765.344.765.768v3.111a.707.707 0 0 0 1.413 0V5.181c0-1.203-.977-2.181-2.178-2.181h-9.054a2.181 2.181 0 0 0-2.178 2.18v3.112c0 .39.316.707.707.707zm25.292 1.486h-38.588a.707.707 0 0 0-.706.707V38.63c0 .39.317.707.706.707h38.588c.39 0 .706-.317.706-.707V11.192a.707.707 0 0 0-.706-.707zm-37.881 1.413h5.134v26.026h-5.134V11.898zm6.547 0h24.092v26.026H270.96V11.898zm25.505 0h5.122v26.026h-5.122V11.898z"/></g></svg>