<svg width="28" height="25" viewBox="0 0 28 25" xmlns="http://www.w3.org/2000/svg"><title>LinkedIn</title><path d="M27.315 24.572h-6.002v-8.58c0-2.245-.94-3.778-3.004-3.778-1.579 0-2.457 1.035-2.866 2.032-.153.358-.13.856-.13 1.355v8.97H9.369s.076-15.196 0-16.577h5.946v2.601c.351-1.137 2.251-2.76 5.283-2.76 3.762 0 6.718 2.384 6.718 7.519v9.218zM3.355 5.92h-.039C1.4 5.92.158 4.653.158 3.046.158 1.41 1.437.168 3.39.168c1.953 0 3.154 1.237 3.192 2.873 0 1.607-1.239 2.879-3.229 2.879zM.842 7.994h5.293v16.578H.843V7.994z" fill="#000" fill-rule="evenodd"/></svg>