<svg width="35" height="34" viewBox="0 0 35 34" xmlns="http://www.w3.org/2000/svg"><title>Dribbble</title><path d="M25.757 29.047c-.15-.876-.932-5.14-2.86-10.374 4.744-.75 8.854.536 9.158.634-.654 4.048-3 7.538-6.298 9.74zm-8.21 2.48c-3.558 0-6.82-1.25-9.364-3.33.195.156.33.254.33.254s2.817-6.072 11.532-9.074c.033-.012.067-.02.1-.03 2.067 5.31 2.92 9.758 3.138 11.028a14.794 14.794 0 0 1-5.737 1.152zM2.848 16.999c0-.154.009-.306.013-.458.26.006 7.521.168 15.087-2.07.42.814.823 1.644 1.192 2.47-.195.052-.387.11-.58.174-7.93 2.532-11.952 9.584-11.952 9.584s.006.006.006.008a14.377 14.377 0 0 1-3.766-9.708zm8.426-13.134c.197.258 2.914 3.9 5.458 8.368-7.056 1.854-13.181 1.78-13.568 1.774.953-4.5 4.01-8.23 8.11-10.142zm2.75-.968l-.002.004-.044.008c.016-.004.03-.006.046-.012zm13.226 3.204c-.037.054-2.129 3.204-7.677 5.258-2.511-4.562-5.272-8.186-5.492-8.474 1.11-.266 2.27-.41 3.464-.41 3.72 0 7.117 1.372 9.705 3.626zm4.986 10.754c-.213-.046-5.187-1.104-10.235-.476-.105-.248-.209-.498-.318-.748a43.417 43.417 0 0 0-.977-2.108c5.803-2.342 8.159-5.708 8.187-5.748a14.368 14.368 0 0 1 3.343 9.08zm2.167-3.278a16.925 16.925 0 0 0-1.006-3.198 17.043 17.043 0 0 0-3.685-5.404A17.186 17.186 0 0 0 27.166 2.9a17.218 17.218 0 0 0-2.922-1.57 17.388 17.388 0 0 0-6.698-1.338 17.459 17.459 0 0 0-6.7 1.338 17.314 17.314 0 0 0-5.47 3.646 17.169 17.169 0 0 0-2.098 2.516A16.78 16.78 0 0 0 .338 17a16.697 16.697 0 0 0 1.354 6.622 16.782 16.782 0 0 0 1.586 2.892c.616.9 1.322 1.744 2.099 2.516a17.304 17.304 0 0 0 5.47 3.642c1.04.436 2.128.768 3.233.99 1.133.232 2.299.348 3.466.348 1.166 0 2.331-.116 3.464-.348a17.209 17.209 0 0 0 6.155-2.558 17.43 17.43 0 0 0 2.548-2.074 17.252 17.252 0 0 0 2.099-2.516 16.782 16.782 0 0 0 1.586-2.892c.44-1.026.78-2.102 1.006-3.194a17.018 17.018 0 0 0 0-6.85z" fill="#000" fill-rule="evenodd"/></svg>