<svg width="45" height="31" viewBox="0 0 45 31" xmlns="http://www.w3.org/2000/svg"><title>Fill 145</title><path d="M22.254 7.847c-4.138 0-7.505 3.367-7.505 7.506 0 4.138 3.367 7.506 7.505 7.506 4.14 0 7.507-3.368 7.507-7.506 0-4.139-3.367-7.506-7.507-7.506zm0 13.512a6.012 6.012 0 0 1-6.005-6.006 6.012 6.012 0 0 1 6.005-6.006 6.013 6.013 0 0 1 6.007 6.006 6.014 6.014 0 0 1-6.007 6.006zm22.108-6.297C39.165 8.049 31.954 0 22.25 0 14.165 0 7.809 5.689.175 14.867a.746.746 0 0 0 .002.962l.648.775C7.159 24.17 12.629 30.705 22.25 30.705c9.643 0 16.846-8.52 21.613-14.158l.469-.554a.749.749 0 0 0 .029-.931zm-1.644.517c-4.862 5.75-11.522 13.626-20.467 13.626-8.922 0-14.184-6.286-20.276-13.564l-.248-.295C9.083 6.568 14.85 1.5 22.25 1.5c8.822 0 15.594 7.366 20.553 13.98l-.086.099z" fill="#FFF" fill-rule="evenodd"/></svg>