<svg width="36" height="24" viewBox="0 0 36 24" xmlns="http://www.w3.org/2000/svg"><title>Behance</title><path d="M22.946 4.61h9.51V1.915h-9.51V4.61zm2.253 5.876c-.606.61-.988 1.435-1.144 2.477h7.396c-.078-1.112-.463-1.952-1.143-2.53-.688-.575-1.534-.862-2.548-.862-1.098 0-1.955.305-2.561.915zm6.418-3.616c1.147.498 2.09 1.289 2.834 2.368.678.951 1.113 2.055 1.311 3.309.116.733.163 1.795.144 3.177H23.949c.072 1.604.638 2.73 1.719 3.374.654.402 1.442.604 2.367.604.973 0 1.769-.245 2.379-.733.336-.266.631-.633.885-1.102h4.38c-.115.947-.647 1.913-1.59 2.893-1.469 1.554-3.527 2.333-6.173 2.333-2.185 0-4.113-.655-5.778-1.969-1.675-1.311-2.507-3.448-2.507-6.405 0-2.774.754-4.9 2.26-6.38 1.51-1.477 3.462-2.22 5.867-2.22 1.43 0 2.715.25 3.86.751zM4.423 13.02v5.772h5.388c.963 0 1.715-.128 2.249-.381.973-.474 1.459-1.372 1.459-2.702 0-1.128-.469-1.9-1.413-2.322-.527-.235-1.268-.359-2.219-.367H4.423zm0-8.355V9.44H9.82c.96 0 1.744-.18 2.348-.538.6-.358.901-.992.901-1.898 0-1.011-.397-1.676-1.19-2.001-.689-.225-1.563-.338-2.625-.338h-4.83zm12.052-1.452c.678.92 1.018 2.02 1.018 3.303 0 1.32-.34 2.384-1.027 3.187-.384.45-.948.86-1.693 1.231 1.132.404 1.985 1.04 2.565 1.911.575.87.864 1.927.864 3.171 0 1.283-.33 2.434-.99 3.45a6.04 6.04 0 0 1-1.571 1.704c-.707.529-1.541.89-2.506 1.087-.965.195-2.008.29-3.136.29H0V.907h10.724c2.706.04 4.621.807 5.75 2.306z" fill="#000" fill-rule="evenodd"/></svg>